<svg width="25" height="25" viewBox="0 0 25 25" fill="none" xmlns="http://www.w3.org/2000/svg">
<g clip-path="url(#clip0)">
<path d="M23.3352 7.09316C23.1003 6.96781 22.8456 6.88396 22.5821 6.84526C21.319 6.65864 20.1438 7.53132 19.9572 8.79441C19.8701 9.3843 20.0142 9.98503 20.3595 10.4711L17.8979 12.7061C17.0406 11.7578 15.5769 11.684 14.6285 12.5412C14.4208 12.729 14.2488 12.953 14.1211 13.2021L11.2826 10.911C11.3472 9.63489 10.3651 8.548 9.08893 8.4834C7.81277 8.41879 6.72588 9.4009 6.66128 10.6771C6.65388 10.8233 6.66038 10.9699 6.68068 11.115L4.00514 13.8527C3.13533 12.9178 1.67223 12.865 0.737283 13.7348C-0.197667 14.6046 -0.250481 16.0677 0.61939 17.0027C1.48921 17.9376 2.9523 17.9904 3.88725 17.1206C4.51753 16.5342 4.76986 15.6462 4.54211 14.816L7.12001 12.1783C7.88499 13.2012 9.33439 13.4104 10.3574 12.6454C10.593 12.4692 10.7929 12.2496 10.9462 11.9985L13.8692 14.3577C13.9178 15.4664 14.7466 16.3846 15.8445 16.546C15.9575 16.5627 16.0716 16.571 16.1858 16.5711C17.4648 16.5672 18.4985 15.5273 18.4947 14.2483C18.4941 14.0505 18.4681 13.8536 18.4176 13.6624L21.1567 11.1754C22.284 11.777 23.6855 11.3508 24.2871 10.2235C24.8887 9.09623 24.4625 7.69473 23.3352 7.09316ZM3.55403 15.6088C3.45369 16.2959 2.81537 16.7715 2.12837 16.6711C1.44136 16.5708 0.965721 15.9324 1.06612 15.2454C1.16646 14.5584 1.80477 14.0828 2.49178 14.1832C2.49241 14.1833 2.49305 14.1834 2.49368 14.1835C3.17957 14.2851 3.6539 14.9227 3.55403 15.6088ZM10.2153 10.9748C10.1141 11.6611 9.47581 12.1355 8.78949 12.0344C8.10317 11.9333 7.62875 11.295 7.72988 10.6086C7.82055 9.99338 8.34768 9.53709 8.96961 9.53561C9.03151 9.53566 9.09337 9.54015 9.15464 9.54919C9.84075 9.6507 10.3153 10.2884 10.2153 10.9748ZM17.4238 14.4395C17.3226 15.1259 16.6843 15.6003 15.998 15.4992C15.3117 15.398 14.8373 14.7597 14.9384 14.0734C15.0291 13.4581 15.5563 13.0018 16.1782 13.0003C16.2401 13.0003 16.302 13.0049 16.3633 13.0139C17.0497 13.1148 17.5244 13.753 17.4235 14.4395V14.4395H17.4238ZM23.4886 9.31674C23.388 10.0035 22.7497 10.4788 22.0629 10.3781C21.3761 10.2775 20.9009 9.63917 21.0015 8.95238C21.1021 8.26559 21.7404 7.79037 22.4272 7.89097C22.4276 7.89102 22.4279 7.89108 22.4283 7.89113C23.1147 7.99205 23.5894 8.63032 23.4886 9.31674H23.4886Z" fill="#F76C1B"/>
</g>
<defs>
<clipPath id="clip0">
<rect width="24.56" height="24.56" fill="white"/>
</clipPath>
</defs>
</svg>
