<svg width="27" height="26" viewBox="0 0 27 26" fill="none" xmlns="http://www.w3.org/2000/svg">
<g clip-path="url(#clip0)">
<path d="M25.2123 3.02255H13.5H5.52685C5.31646 3.02255 5.14599 3.19308 5.14599 3.40341C5.14599 3.61375 5.31646 3.78427 5.52685 3.78427H13.1191V8.44133C10.7742 8.63552 8.92534 10.6058 8.92534 13C8.92534 15.3941 10.7742 17.3644 13.1191 17.5587V22.2157H1.78766C1.4977 22.2157 1.26177 21.9797 1.26177 21.6898V19.271H5.00918C5.52619 19.271 5.94671 18.8505 5.94671 18.3336V7.66636C5.94671 7.14945 5.52619 6.72893 5.00918 6.72893H1.26177V4.31011C1.26177 4.02015 1.4977 3.78427 1.78766 3.78427H4.20648C4.41687 3.78427 4.58734 3.61375 4.58734 3.40341C4.58734 3.19308 4.41687 3.02255 4.20648 3.02255H1.78766C1.07764 3.02255 0.5 3.60014 0.5 4.31011C0.5 4.46215 0.5 18.7387 0.5 18.8902V21.6898C0.5 22.3999 1.07764 22.9775 1.78766 22.9775C2.29553 22.9775 24.7045 22.9775 25.2124 22.9775C25.9224 22.9775 26.5001 22.3999 26.5001 21.6898V18.8902C26.5001 18.7388 26.5001 4.4622 26.5001 4.31016C26.5001 3.60014 25.9224 3.02255 25.2123 3.02255ZM1.26177 7.4907H5.00918C5.10607 7.4907 5.18494 7.56952 5.18494 7.66636V18.3336C5.18494 18.4304 5.10607 18.5092 5.00918 18.5092H1.26177V7.4907ZM13.1191 12.2778C12.8601 12.4147 12.6834 12.6865 12.6834 13C12.6834 13.3133 12.8601 13.5851 13.1191 13.722V16.7938C11.1949 16.6021 9.68711 14.9739 9.68711 13C9.68711 11.0262 11.1949 9.39795 13.1191 9.2062V12.2778ZM13.8809 13.722C14.1399 13.5851 14.3166 13.3132 14.3166 12.9999C14.3166 12.6865 14.1399 12.4147 13.8809 12.2777V9.20615C15.8051 9.39785 17.3129 11.026 17.3129 13C17.3129 14.9739 15.8051 16.602 13.8809 16.7938V13.722ZM25.7382 6.72893H21.9908C21.4738 6.72893 21.0533 7.14945 21.0533 7.66636V8.68325C21.0533 8.89359 21.2238 9.06411 21.4342 9.06411C21.6445 9.06411 21.815 8.89359 21.815 8.68325V7.66636C21.815 7.56952 21.8939 7.4907 21.9908 7.4907H25.7382V18.5092H21.9908C21.8939 18.5092 21.815 18.4304 21.815 18.3336V10.0037C21.815 9.79333 21.6445 9.62281 21.4342 9.62281C21.2238 9.62281 21.0533 9.79333 21.0533 10.0037V18.3335C21.0533 18.8505 21.4738 19.271 21.9908 19.271H25.7382V21.6898C25.7383 21.9797 25.5024 22.2157 25.2123 22.2157H13.8809V17.5587C16.2258 17.3644 18.0747 15.3942 18.0747 13C18.0747 10.6058 16.2258 8.63552 13.8809 8.44133V3.78432H25.2124C25.5024 3.78432 25.7383 4.0202 25.7383 4.31016V6.72893H25.7382Z" fill="#F76C1B"/>
</g>
<defs>
<clipPath id="clip0">
<rect width="26" height="26" fill="white" transform="translate(0.5)"/>
</clipPath>
</defs>
</svg>
