<svg width="32" height="32" viewBox="0 0 32 32" fill="none" xmlns="http://www.w3.org/2000/svg">
<path fill-rule="evenodd" clip-rule="evenodd" d="M1.78313 8.14459C1.78313 7.69212 2.14993 7.32532 2.6024 7.32532H28.5301C28.9826 7.32532 29.3494 7.69212 29.3494 8.14459C29.3494 8.59707 28.9826 8.96387 28.5301 8.96387H2.6024C2.14993 8.96387 1.78313 8.59707 1.78313 8.14459Z" fill="white"/>
<path fill-rule="evenodd" clip-rule="evenodd" d="M1.78313 15.9518C1.78313 15.4993 2.14993 15.1325 2.6024 15.1325H17.7349C18.1874 15.1325 18.5542 15.4993 18.5542 15.9518C18.5542 16.4043 18.1874 16.7711 17.7349 16.7711H2.6024C2.14993 16.7711 1.78313 16.4043 1.78313 15.9518Z" fill="white"/>
<path fill-rule="evenodd" clip-rule="evenodd" d="M1.78313 23.759C1.78313 23.3066 2.14993 22.9398 2.6024 22.9398H29.3012C29.7537 22.9398 30.1205 23.3066 30.1205 23.759C30.1205 24.2115 29.7537 24.5783 29.3012 24.5783H2.6024C2.14993 24.5783 1.78313 24.2115 1.78313 23.759Z" fill="white"/>
</svg>
