<svg width="22" height="23" viewBox="0 0 22 23" fill="none" xmlns="http://www.w3.org/2000/svg">
<path fill-rule="evenodd" clip-rule="evenodd" d="M9.44279 3.08439C5.58178 3.08439 2.45182 6.21435 2.45182 10.0754C2.45182 13.9364 5.58178 17.0663 9.44279 17.0663C13.3038 17.0663 16.4338 13.9364 16.4338 10.0754C16.4338 6.21435 13.3038 3.08439 9.44279 3.08439ZM1.32532 10.0754C1.32532 5.5922 4.95963 1.95789 9.44279 1.95789C13.9259 1.95789 17.5603 5.5922 17.5603 10.0754C17.5603 12.1526 16.78 14.0476 15.4966 15.4833L20.4497 20.0028C20.6795 20.2125 20.6958 20.5687 20.4861 20.7985C20.2764 21.0283 19.9202 21.0446 19.6904 20.8349L14.7219 16.3015C14.7106 16.2911 14.6999 16.2805 14.6896 16.2695C13.2746 17.4692 11.4432 18.1928 9.44279 18.1928C4.95963 18.1928 1.32532 14.5585 1.32532 10.0754Z" fill="white"/>
</svg>
